# xmcd
#
# Track frame offsets:
# 150
# 18394
# 33335
# 50140
# 66183
# 84109
# 104254
# 122159
# 139042
# 156849
# 177702
# 192454
# 210343
# 225015
#
# Disc length: 3200 seconds
#
#
# Revision: 0
# Processed by: cddbd v1.5.1PL0 Copyright (c) Steve Scherf et al.
# Submitted via: FreeRIP 2.70 
#
DISCID=b70c7e0e
DTITLE=Sonny-B. - That´s me!
DYEAR=1997
DGENRE=Country
TTITLE0=LA International Airport
TTITLE1=Girl If You Only Knew
TTITLE2=Evangelina
TTITLE3=King Of The Road
TTITLE4=Every Time I Hold Her
TTITLE5=Stand By Your Man
TTITLE6=Chatahooche
TTITLE7=Devil Woman
TTITLE8=Just An Old Hippie
TTITLE9=Late Nights and Bright Lights
TTITLE10=If You Where The Only Girl In The World
TTITLE11=Chrystal Chandeliers
TTITLE12=Do What You Do Well
TTITLE13=Sonny-B. Theme (Instrumental)
EXTD=
EXTT0=L.Scott
EXTT1=D. Van Altena
EXTT2=H. Axton - K. Higginbothem
EXTT3=R. Miller
EXTT4="Sonny-B." W. Burns
EXTT5=B. Sherril - T. Wynette
EXTT6=A. Jackson - J. McBride
EXTT7=M. Robins
EXTT8=D. and H. Bellamy
EXTT9="Sonny-B." W. Burns
EXTT10="Sonny-B." W. Burns
EXTT11=T. Harris - H. Mus
EXTT12=N. Miller
EXTT13="Sonny-B." W. Burns
PLAYORDER=
